# xmcd CD database file
#
# Track frame offsets:
#	150
#	27574
#	40442
#	54070
#	78975
#	98160
#	112177
#	125193
#	139078
#	154454
#	167846
#	181836
#	196723
#	211203
#	223260
#	237284
#	247744
#
# Disc length: 3563 seconds
#
# Revision: 0
# Processed by: cddbd v1.5.2PL0 Copyright (c) Steve Scherf et al.
# Submitted via: CDex 1.70beta2
#
DISCID=f10de911
DTITLE=Various Artist - Pue... Blues [CD 4)
DYEAR=2010
DGENRE=Blues
TTITLE0=Muddy Waters - Howling Wolf [live]
TTITLE1=Jelly bread - I've Got To Forget You
TTITLE2=Taj Mahal - Corinna
TTITLE3=Henry 'Red' Allen - Let Me Miss You, Baby
TTITLE4=Louis Armstrong and His All Stars - Back O' Town Blues
TTITLE5=Duke Ellington and His Famous Orchestra - Rocks In My Bed
TTITLE6=Count Basie And His Orchestra - Brand New Wagon
TTITLE7=Jack Teagarden's Big Eight - St. Louis Blues
TTITLE8=Benny Goodman Quartet - The Blues In My Flat
TTITLE9=Lil Green - Why Don't You Do Right? (Get Me Some Money Too)
TTITLE10=Furry Lewis - Kassie Jones, Part I
TTITLE11=Lonnie Johnson - Wipe It Off
TTITLE12=Blind Willie McTell - Southern Can Is Mine
TTITLE13=Brownie McGhee - Key To The Highway 70 No. 1
TTITLE14=Memphis Slim - Lend Me Your Love
TTITLE15=Keb' Mo' - Am I Wrong
TTITLE16=Jeff Beck - JB's Blues
EXTD=YEAR: 2010
EXTT0=
EXTT1=
EXTT2=
EXTT3=
EXTT4=
EXTT5=
EXTT6=
EXTT7=
EXTT8=
EXTT9=
EXTT10=
EXTT11=
EXTT12=
EXTT13=
EXTT14=
EXTT15=
EXTT16=
PLAYORDER=
